<?xml version="1.0" encoding="iso-8859-1"?>
<!-- Uploaded to: SVG Repo, www.svgrepo.com, Generator: SVG Repo Mixer Tools -->
<svg version="1.1" id="Layer_1" xmlns="http://www.w3.org/2000/svg" xmlns:xlink="http://www.w3.org/1999/xlink" 
	 viewBox="0 0 451.277 451.277" xml:space="preserve">
<circle style="fill:#E05B49;" cx="225.638" cy="225.638" r="225.638"/>
<path style="opacity:0.1;enable-background:new    ;" d="M450.558,243.093L307.02,99.555l-0.094-0.094
	c-1.504-1.88-3.902-3.103-6.582-3.103H150.94c-4.795,0-8.697,3.902-8.697,8.697v241.125c0,3.291,1.786,6.112,4.419,7.522
	l-0.047,0.047l96.812,96.783C353.965,441.903,442.089,353.676,450.558,243.093z"/>
<path style="fill:#EBF0F3;" d="M300.324,96.355H150.953c-4.817,0-8.723,3.905-8.723,8.723v241.121c0,4.817,3.906,8.723,8.723,8.723
	h149.371c4.817,0,8.723-3.905,8.723-8.723V105.078C309.047,100.261,305.141,96.355,300.324,96.355z"/>
<rect x="156.334" y="117.002" style="fill:#64798A;" width="138.598" height="193.961"/>
<rect x="156.334" y="304.077" style="fill:#3A556A;" width="138.598" height="6.861"/>
<g>
	<path style="fill:#64798A;" d="M225.637,344.955c-6.873,0-12.464-5.592-12.464-12.464c0-6.877,5.592-12.469,12.464-12.469
		c6.875,0,12.467,5.592,12.467,12.469C238.105,339.364,232.512,344.955,225.637,344.955z M225.637,324.723
		c-4.281,0-7.763,3.485-7.763,7.768c0,4.279,3.482,7.763,7.763,7.763c4.281,0,7.766-3.485,7.766-7.763
		C233.403,328.207,229.919,324.723,225.637,324.723z"/>
	<path style="fill:#64798A;" d="M236.36,108.738h-21.442c-1.299,0-2.351-1.051-2.351-2.351c0-1.299,1.051-2.351,2.351-2.351h21.442
		c1.299,0,2.351,1.052,2.351,2.351C238.711,107.687,237.659,108.738,236.36,108.738z"/>
	<circle style="fill:#64798A;" cx="201.011" cy="106.388" r="2.35"/>
</g>
</svg>